# xmcd
#
# Track frame offsets:
#	150
#	59383
#	114675
#	143714
#	185577
#	232836
#	278718
#	311248
#
# Disc length: 4488 seconds
#
# Revision: 0
# Processed by: cddbd v1.5.2PL0 Copyright (c) Steve Scherf et al.
# Submitted via: audiograbber 1.83.01
#
DISCID=71118608
DTITLE=Grateful Dead - 78-01-10 Shrine Auditorium, Los Angeles CA
DYEAR=1900
DGENRE=
TTITLE0=Estimated Prophet
TTITLE1=He's Gone
TTITLE2=Drums
TTITLE3=The Other One
TTITLE4=Wharf Rat
TTITLE5=Franklin's Tower
TTITLE6=Around and Around
TTITLE7=US Blues
EXTD=
EXTT0=
EXTT1=
EXTT2=
EXTT3=
EXTT4=
EXTT5=
EXTT6=
EXTT7=
PLAYORDER=
